<svg width="158" height="113" viewBox="0 0 158 113" fill="none" xmlns="http://www.w3.org/2000/svg">
<g clip-path="url(#clip0_354_638)">
<path d="M159.154 51.1826V61.8243L146.823 67.6316L120.796 79.8982L105.344 72.6165L82.4385 61.8243V51.1826L105.344 40.3804L120.796 33.0986L146.823 45.3652L159.154 51.1826Z" fill="#00A8CD"/>
</g>
<g clip-path="url(#clip1_354_638)">
<path d="M118.115 84.2812V94.9229L105.784 100.73L79.7569 112.997L64.3049 105.715L41.3989 94.9229V84.2812L64.3049 73.479L79.7569 66.1973L105.784 78.4638L118.115 84.2812Z" fill="#00A8CD"/>
</g>
<g clip-path="url(#clip2_354_638)">
<path d="M77.0748 51.1826V61.8243L64.7438 67.6316L38.7169 79.8982L23.2649 72.6165L0.358887 61.8243V51.1826L23.2649 40.3804L38.7169 33.0986L64.7438 45.3652L77.0748 51.1826Z" fill="#00A8CD"/>
</g>
<g clip-path="url(#clip3_354_638)">
<path d="M118.115 18.0839V28.7257L105.784 34.533L79.7569 46.7996L64.3049 39.5179L41.3989 28.7257V18.0839L64.3049 7.28172L79.7569 0L105.784 12.2666L118.115 18.0839Z" fill="#00A8CD"/>
</g>
<defs>
<clipPath id="clip0_354_638">
<rect width="76.716" height="46.7996" fill="white" transform="translate(80.5298 33.0986)"/>
</clipPath>
<clipPath id="clip1_354_638">
<rect width="76.716" height="46.7996" fill="white" transform="translate(41.3989 66.1973)"/>
</clipPath>
<clipPath id="clip2_354_638">
<rect width="76.716" height="46.7996" fill="white" transform="translate(0.358887 33.0986)"/>
</clipPath>
<clipPath id="clip3_354_638">
<rect width="76.716" height="46.7996" fill="white" transform="translate(41.3989)"/>
</clipPath>
</defs>
</svg>
