<svg width="157" height="114" viewBox="0 0 157 114" fill="none" xmlns="http://www.w3.org/2000/svg">
<g clip-path="url(#clip0_354_168)">
<path d="M116.856 18.1614V28.8487L104.705 34.6809L79.0576 47L63.8313 39.6871L41.2598 28.8487V18.1614L63.8313 7.3129L79.0576 0L104.705 12.3191L116.856 18.1614Z" fill="#0C7B93"/>
</g>
<g clip-path="url(#clip1_354_168)">
<path d="M76.8342 52.1614V62.8487L64.5403 68.6809L38.5917 81L23.1862 73.6871L0.349121 62.8487V52.1614L23.1862 41.3129L38.5917 34L64.5403 46.3191L76.8342 52.1614Z" fill="#0C7B93"/>
</g>
<g clip-path="url(#clip2_354_168)">
<path d="M156.877 52.1614V62.8487L144.583 68.6809L118.634 81L103.229 73.6871L80.3916 62.8487V52.1614L103.229 41.3129L118.634 34L144.583 46.3191L156.877 52.1614Z" fill="#0C7B93"/>
</g>
<g clip-path="url(#clip3_354_168)">
<path d="M116.856 85.1614V95.8487L104.705 101.681L79.0576 114L63.8313 106.687L41.2598 95.8487V85.1614L63.8313 74.3129L79.0576 67L104.705 79.3191L116.856 85.1614Z" fill="#0C7B93"/>
</g>
<defs>
<clipPath id="clip0_354_168">
<rect width="75.5957" height="47" fill="white" transform="translate(41.2598)"/>
</clipPath>
<clipPath id="clip1_354_168">
<rect width="76.4851" height="47" fill="white" transform="translate(0.349121 34)"/>
</clipPath>
<clipPath id="clip2_354_168">
<rect width="76.4851" height="47" fill="white" transform="translate(80.3916 34)"/>
</clipPath>
<clipPath id="clip3_354_168">
<rect width="75.5957" height="47" fill="white" transform="translate(41.2598 67)"/>
</clipPath>
</defs>
</svg>
