<svg width="279" height="162" viewBox="0 0 279 162" fill="none" xmlns="http://www.w3.org/2000/svg">
<g clip-path="url(#clip0_226_87)">
<path d="M278.65 62.49V99.28L233.85 119.37L139.32 161.76L83.18 136.58L0 99.28V62.49L83.18 25.18L139.32 0L233.85 42.4L278.65 62.49Z" fill="#0B7B93"/>
<path d="M104.47 120.16C101.539 120.181 98.6171 119.818 95.78 119.08C93.1939 118.406 90.684 117.468 88.29 116.28V102.58C90.3572 103.993 92.5004 105.292 94.71 106.47C96.6827 107.523 98.8838 108.076 101.12 108.08C104.72 108.08 107.47 107.17 109.37 105.33C111.27 103.49 112.23 100.53 112.23 96.4401V36.5501L126.9 30.1201V97.1901C127.024 101.045 126.343 104.883 124.9 108.46C123.755 111.203 121.96 113.626 119.67 115.52C117.553 117.234 115.09 118.469 112.45 119.14C109.843 119.813 107.162 120.156 104.47 120.16Z" fill="white"/>
<path d="M156.51 109.82C153.161 109.891 149.819 109.473 146.59 108.58C143.901 107.762 141.271 106.76 138.72 105.58V93.2099C140.37 94.2899 142.12 95.3199 143.95 96.2899C145.835 97.2792 147.824 98.0573 149.88 98.6099C152.165 99.2042 154.519 99.4934 156.88 99.4699C159.68 99.4699 161.783 98.9299 163.19 97.8499C163.843 97.3849 164.375 96.7697 164.74 96.0561C165.106 95.3426 165.294 94.5516 165.29 93.7499C165.318 93.0954 165.185 92.4439 164.903 91.8528C164.62 91.2617 164.197 90.7491 163.67 90.3599C162.392 89.43 160.97 88.7171 159.46 88.2499C157.74 87.6799 155.91 87.0999 153.96 86.5299C152.109 86.0798 150.291 85.5018 148.52 84.7999C146.714 84.0925 145.027 83.111 143.52 81.8899C141.976 80.6209 140.742 79.017 139.91 77.1999C138.946 74.9956 138.485 72.6045 138.56 70.1999C138.44 67.5062 139.031 64.8284 140.271 62.4346C141.512 60.0407 143.36 58.0149 145.63 56.5599C147.741 55.1711 150.075 54.1562 152.53 53.5599C154.909 52.9612 157.358 52.6887 159.81 52.7499C163.195 52.71 166.566 53.182 169.81 54.1499C172.266 54.9931 174.648 56.0401 176.93 57.2799V68.5199C174.41 67.1532 171.983 65.9132 169.65 64.7999C167.094 63.6345 164.308 63.0603 161.5 63.1199C159.24 62.9967 156.99 63.5021 155 64.5799C154.29 64.9768 153.7 65.5577 153.291 66.2616C152.883 66.9654 152.672 67.7662 152.68 68.5799C152.649 69.2474 152.758 69.9141 152.999 70.5374C153.24 71.1606 153.608 71.7268 154.08 72.1999C155.15 73.1776 156.419 73.9112 157.8 74.3499C159.35 74.8899 161.02 75.4199 162.8 75.9199C164.58 76.4199 166.45 76.9799 168.35 77.5899C170.258 78.1989 172.072 79.0706 173.74 80.1799C175.472 81.3356 176.882 82.9113 177.84 84.7599C178.973 87.1101 179.513 89.7026 179.41 92.3099C179.33 96.5499 178.197 99.9465 176.01 102.5C173.753 105.098 170.821 107.022 167.54 108.06C163.983 109.241 160.258 109.836 156.51 109.82Z" fill="white"/>
<path d="M77.45 112.09L20 86.3299V75.4399L77.45 49.6799V64.5599L37.91 80.8199L77.45 97.3499V112.09Z" fill="#00A8CD"/>
<path d="M193.35 112.09V97.3499L232.89 80.8199L193.35 64.5599V49.6799L250.67 75.4399V86.3299L193.35 112.09Z" fill="#00A8CD"/>
<path d="M216.44 62.26H205.98V96.81H216.44V62.26Z" fill="#00A8CD"/>
</g>
<defs>
<clipPath id="clip0_226_87">
<rect width="278.65" height="161.76" fill="white"/>
</clipPath>
</defs>
</svg>
