<svg width="296" height="154" viewBox="0 0 296 154" fill="none" xmlns="http://www.w3.org/2000/svg">
<path d="M123.456 69.8556V84.3911L110.594 92.337L83.4485 109.092L67.3322 99.1322L43.4414 84.3911V69.8556L67.3322 55.1145L83.4485 45.1685L110.594 61.9234L123.456 69.8556Z" fill="#00A8CD"/>
<path d="M295.014 69.6871V84.2227L282.153 92.1686L255.007 108.923L238.891 98.9637L215 84.2227V69.6871L238.891 54.9461L255.007 45L282.153 61.7549L295.014 69.6871Z" fill="#00A8CD"/>
<path d="M166.339 24.7008V39.2364L153.478 47.1686L126.332 63.9235L110.216 53.9774L86.3252 39.2364V24.7008L110.216 9.94609L126.332 0L153.478 16.7549L166.339 24.7008Z" fill="#00A8CD"/>
<path d="M80.0142 114.777V129.313L67.153 137.259L40.0071 154L23.8908 144.054L0 129.313V114.777L23.8908 100.036L40.0071 90.0767L67.153 106.832L80.0142 114.777Z" fill="#00A8CD"/>
<path d="M209.791 69.8556V84.3911L196.92 92.337L169.774 109.092L153.657 99.1322L129.767 84.3911V69.8556L153.657 55.1145L169.774 45.1685L196.92 61.9234L209.791 69.8556Z" fill="#00A8CD"/>
<path d="M252.674 24.7008V39.2364L239.813 47.1686L212.667 63.9235L196.541 53.9774L172.66 39.2364V24.7008L196.541 9.94609L212.667 0L239.813 16.7549L252.674 24.7008Z" fill="#00A8CD"/>
<path d="M166.339 114.777V129.313L153.478 137.259L126.332 154L110.216 144.054L86.3252 129.313V114.777L110.216 100.036L126.332 90.0767L153.478 106.832L166.339 114.777Z" fill="#00A8CD"/>
<path d="M252.674 114.777V129.313L239.813 137.259L212.667 154L196.541 144.054L172.66 129.313V114.777L196.541 100.036L212.667 90.0767L239.813 106.832L252.674 114.777Z" fill="#00A8CD"/>
</svg>
