<svg width="1366" height="40" viewBox="0 0 1366 40" fill="none" xmlns="http://www.w3.org/2000/svg">
<g clip-path="url(#clip0_508_388)">
<rect width="1366" height="40" fill="#D9D9D9"/>
<path d="M69.0397 35.4565V44.5521L57.9425 49.5156L34.5199 60L20.614 53.7763L0 44.5521V35.4565L20.614 26.2237L34.5199 20L57.9425 30.4844L69.0397 35.4565Z" fill="#0C7B93"/>
<path d="M138.04 35.4565V44.5521L126.943 49.5156L103.52 60L89.614 53.7763L69 44.5521V35.4565L89.614 26.2237L103.52 20L126.943 30.4844L138.04 35.4565Z" fill="#0C7B93"/>
<path d="M104.04 -4.54351V4.55208L92.9425 9.51565L69.5199 20L55.614 13.7763L35 4.55208V-4.54351L55.614 -13.7763L69.5199 -20L92.9425 -9.51565L104.04 -4.54351Z" fill="#0C7B93"/>
<path d="M35.0397 -4.54351V4.55208L23.9425 9.51565L0.519856 20L-13.386 13.7763L-34 4.55208V-4.54351L-13.386 -13.7763L0.519856 -20L23.9425 -9.51565L35.0397 -4.54351Z" fill="#0C7B93"/>
<path d="M614.04 35.4565V44.5521L602.943 49.5156L579.52 60L565.614 53.7763L545 44.5521V35.4565L565.614 26.2237L579.52 20L602.943 30.4844L614.04 35.4565Z" fill="#0C7B93"/>
<path d="M683.04 35.4565V44.5521L671.943 49.5156L648.52 60L634.614 53.7763L614 44.5521V35.4565L634.614 26.2237L648.52 20L671.943 30.4844L683.04 35.4565Z" fill="#0C7B93"/>
<path d="M649.04 -4.54351V4.55208L637.943 9.51565L614.52 20L600.614 13.7763L580 4.55208V-4.54351L600.614 -13.7763L614.52 -20L637.943 -9.51565L649.04 -4.54351Z" fill="#0C7B93"/>
<path d="M580.04 -4.54351V4.55208L568.943 9.51565L545.52 20L531.614 13.7763L511 4.55208V-4.54351L531.614 -13.7763L545.52 -20L568.943 -9.51565L580.04 -4.54351Z" fill="#0C7B93"/>
<path d="M482.04 35.4565V44.5521L470.943 49.5156L447.52 60L433.614 53.7763L413 44.5521V35.4565L433.614 26.2237L447.52 20L470.943 30.4844L482.04 35.4565Z" fill="#0C7B93"/>
<path d="M551.04 35.4565V44.5521L539.943 49.5156L516.52 60L502.614 53.7763L482 44.5521V35.4565L502.614 26.2237L516.52 20L539.943 30.4844L551.04 35.4565Z" fill="#0C7B93"/>
<path d="M517.04 -4.54351V4.55208L505.943 9.51565L482.52 20L468.614 13.7763L448 4.55208V-4.54351L468.614 -13.7763L482.52 -20L505.943 -9.51565L517.04 -4.54351Z" fill="#0C7B93"/>
<path d="M448.04 -4.54351V4.55208L436.943 9.51565L413.52 20L399.614 13.7763L379 4.55208V-4.54351L399.614 -13.7763L413.52 -20L436.943 -9.51565L448.04 -4.54351Z" fill="#0C7B93"/>
<path d="M344.04 35.4565V44.5521L332.943 49.5156L309.52 60L295.614 53.7763L275 44.5521V35.4565L295.614 26.2237L309.52 20L332.943 30.4844L344.04 35.4565Z" fill="#0C7B93"/>
<path d="M413.04 35.4565V44.5521L401.943 49.5156L378.52 60L364.614 53.7763L344 44.5521V35.4565L364.614 26.2237L378.52 20L401.943 30.4844L413.04 35.4565Z" fill="#0C7B93"/>
<path d="M379.04 -4.54351V4.55208L367.943 9.51565L344.52 20L330.614 13.7763L310 4.55208V-4.54351L330.614 -13.7763L344.52 -20L367.943 -9.51565L379.04 -4.54351Z" fill="#0C7B93"/>
<path d="M310.04 -4.54351V4.55208L298.943 9.51565L275.52 20L261.614 13.7763L241 4.55208V-4.54351L261.614 -13.7763L275.52 -20L298.943 -9.51565L310.04 -4.54351Z" fill="#0C7B93"/>
<path d="M207.04 35.4565V44.5521L195.943 49.5156L172.52 60L158.614 53.7763L138 44.5521V35.4565L158.614 26.2237L172.52 20L195.943 30.4844L207.04 35.4565Z" fill="#0C7B93"/>
<path d="M276.04 35.4565V44.5521L264.943 49.5156L241.52 60L227.614 53.7763L207 44.5521V35.4565L227.614 26.2237L241.52 20L264.943 30.4844L276.04 35.4565Z" fill="#0C7B93"/>
<path d="M242.04 -4.54351V4.55208L230.943 9.51565L207.52 20L193.614 13.7763L173 4.55208V-4.54351L193.614 -13.7763L207.52 -20L230.943 -9.51565L242.04 -4.54351Z" fill="#0C7B93"/>
<path d="M173.04 -4.54351V4.55208L161.943 9.51565L138.52 20L124.614 13.7763L104 4.55208V-4.54351L124.614 -13.7763L138.52 -20L161.943 -9.51565L173.04 -4.54351Z" fill="#0C7B93"/>
<path d="M752.04 35.4565V44.5521L740.943 49.5156L717.52 60L703.614 53.7763L683 44.5521V35.4565L703.614 26.2237L717.52 20L740.943 30.4844L752.04 35.4565Z" fill="#0C7B93"/>
<path d="M821.04 35.4565V44.5521L809.943 49.5156L786.52 60L772.614 53.7763L752 44.5521V35.4565L772.614 26.2237L786.52 20L809.943 30.4844L821.04 35.4565Z" fill="#0C7B93"/>
<path d="M787.04 -4.54351V4.55208L775.943 9.51565L752.52 20L738.614 13.7763L718 4.55208V-4.54351L738.614 -13.7763L752.52 -20L775.943 -9.51565L787.04 -4.54351Z" fill="#0C7B93"/>
<path d="M718.04 -4.54351V4.55208L706.943 9.51565L683.52 20L669.614 13.7763L649 4.55208V-4.54351L669.614 -13.7763L683.52 -20L706.943 -9.51565L718.04 -4.54351Z" fill="#0C7B93"/>
<path d="M890.04 35.4565V44.5521L878.943 49.5156L855.52 60L841.614 53.7763L821 44.5521V35.4565L841.614 26.2237L855.52 20L878.943 30.4844L890.04 35.4565Z" fill="#0C7B93"/>
<path d="M959.04 35.4565V44.5521L947.943 49.5156L924.52 60L910.614 53.7763L890 44.5521V35.4565L910.614 26.2237L924.52 20L947.943 30.4844L959.04 35.4565Z" fill="#0C7B93"/>
<path d="M925.04 -4.54351V4.55208L913.943 9.51565L890.52 20L876.614 13.7763L856 4.55208V-4.54351L876.614 -13.7763L890.52 -20L913.943 -9.51565L925.04 -4.54351Z" fill="#0C7B93"/>
<path d="M856.04 -4.54351V4.55208L844.943 9.51565L821.52 20L807.614 13.7763L787 4.55208V-4.54351L807.614 -13.7763L821.52 -20L844.943 -9.51565L856.04 -4.54351Z" fill="#0C7B93"/>
<path d="M1028.04 35.4565V44.5521L1016.94 49.5156L993.52 60L979.614 53.7763L959 44.5521V35.4565L979.614 26.2237L993.52 20L1016.94 30.4844L1028.04 35.4565Z" fill="#0C7B93"/>
<path d="M1097.04 35.4565V44.5521L1085.94 49.5156L1062.52 60L1048.61 53.7763L1028 44.5521V35.4565L1048.61 26.2237L1062.52 20L1085.94 30.4844L1097.04 35.4565Z" fill="#0C7B93"/>
<path d="M1063.04 -4.54351V4.55208L1051.94 9.51565L1028.52 20L1014.61 13.7763L994 4.55208V-4.54351L1014.61 -13.7763L1028.52 -20L1051.94 -9.51565L1063.04 -4.54351Z" fill="#0C7B93"/>
<path d="M994.04 -4.54351V4.55208L982.943 9.51565L959.52 20L945.614 13.7763L925 4.55208V-4.54351L945.614 -13.7763L959.52 -20L982.943 -9.51565L994.04 -4.54351Z" fill="#0C7B93"/>
<path d="M1166.04 35.4565V44.5521L1154.94 49.5156L1131.52 60L1117.61 53.7763L1097 44.5521V35.4565L1117.61 26.2237L1131.52 20L1154.94 30.4844L1166.04 35.4565Z" fill="#0C7B93"/>
<path d="M1235.04 35.4565V44.5521L1223.94 49.5156L1200.52 60L1186.61 53.7763L1166 44.5521V35.4565L1186.61 26.2237L1200.52 20L1223.94 30.4844L1235.04 35.4565Z" fill="#0C7B93"/>
<path d="M1201.04 -4.54351V4.55208L1189.94 9.51565L1166.52 20L1152.61 13.7763L1132 4.55208V-4.54351L1152.61 -13.7763L1166.52 -20L1189.94 -9.51565L1201.04 -4.54351Z" fill="#0C7B93"/>
<path d="M1132.04 -4.54351V4.55208L1120.94 9.51565L1097.52 20L1083.61 13.7763L1063 4.55208V-4.54351L1083.61 -13.7763L1097.52 -20L1120.94 -9.51565L1132.04 -4.54351Z" fill="#0C7B93"/>
<path d="M1303.04 35.4565V44.5521L1291.94 49.5156L1268.52 60L1254.61 53.7763L1234 44.5521V35.4565L1254.61 26.2237L1268.52 20L1291.94 30.4844L1303.04 35.4565Z" fill="#0C7B93"/>
<path d="M1372.04 35.4565V44.5521L1360.94 49.5156L1337.52 60L1323.61 53.7763L1303 44.5521V35.4565L1323.61 26.2237L1337.52 20L1360.94 30.4844L1372.04 35.4565Z" fill="#0C7B93"/>
<path d="M1338.04 -4.54351V4.55208L1326.94 9.51565L1303.52 20L1289.61 13.7763L1269 4.55208V-4.54351L1289.61 -13.7763L1303.52 -20L1326.94 -9.51565L1338.04 -4.54351Z" fill="#0C7B93"/>
<path d="M1269.04 -4.54351V4.55208L1257.94 9.51565L1234.52 20L1220.61 13.7763L1200 4.55208V-4.54351L1220.61 -13.7763L1234.52 -20L1257.94 -9.51565L1269.04 -4.54351Z" fill="#0C7B93"/>
<path d="M1407.04 -4.5435V4.55208L1395.94 9.51565L1372.52 20L1358.61 13.7763L1338 4.55208V-4.5435L1358.61 -13.7763L1372.52 -20L1395.94 -9.51565L1407.04 -4.5435Z" fill="#0C7B93"/>
</g>
<defs>
<clipPath id="clip0_508_388">
<rect width="1366" height="40" fill="white"/>
</clipPath>
</defs>
</svg>
